# xmcd
#
# Track frame offsets:
#	150
#	42435
#	70620
#	111020
#	141927
#	163197
#	195577
#	210135
#
# Disc length: 2958 seconds
#
# Revision: 1
# Processed by: cddbd v1.5PL3 Copyright (c) Steve Scherf et al.
# Submitted via: CDex 1.50Beta5
#
DISCID=6a0b8c08
DTITLE=ASA-CHANG&巡礼 - つぎねぷ
DYEAR=2002
DGENRE=Rock
TTITLE0=トレモロ
TTITLE1=あたらしい花
TTITLE2=12節
TTITLE3=海峡
TTITLE4=つぎねぷと言ってみた
TTITLE5=Jippun
TTITLE6=Xylophone
TTITLE7=KUTU#3
EXTD=
EXTT0=
EXTT1=
EXTT2=
EXTT3=
EXTT4=
EXTT5=
EXTT6=
EXTT7=
PLAYORDER=
